<mxfile host="app.diagrams.net" agent="Mozilla/5.0 (Windows NT 10.0; Win64; x64) AppleWebKit/537.36 (KHTML, like Gecko) Chrome/132.0.0.0 YaBrowser/25.2.0.0 Safari/537.36" version="26.1.1">
  <diagram name="Страница — 1" id="xQz8-KJzHb8dcBvMmZum">
    <mxGraphModel dx="1290" dy="575" grid="1" gridSize="10" guides="1" tooltips="1" connect="1" arrows="1" fold="1" page="1" pageScale="1" pageWidth="827" pageHeight="1169" math="0" shadow="0">
      <root>
        <mxCell id="0" />
        <mxCell id="1" parent="0" />
        <mxCell id="IE-UkbdnU8F0XDlXtWsS-3" style="edgeStyle=orthogonalEdgeStyle;rounded=0;orthogonalLoop=1;jettySize=auto;html=1;" parent="1" source="IE-UkbdnU8F0XDlXtWsS-1" target="IE-UkbdnU8F0XDlXtWsS-4" edge="1">
          <mxGeometry relative="1" as="geometry">
            <mxPoint x="170" y="110" as="targetPoint" />
          </mxGeometry>
        </mxCell>
        <mxCell id="IE-UkbdnU8F0XDlXtWsS-1" value="Начало&amp;nbsp;IsFull" style="ellipse;whiteSpace=wrap;html=1;" parent="1" vertex="1">
          <mxGeometry x="100" y="40" width="140" height="50" as="geometry" />
        </mxCell>
        <mxCell id="IE-UkbdnU8F0XDlXtWsS-2" value="Конец IsFull" style="ellipse;whiteSpace=wrap;html=1;" parent="1" vertex="1">
          <mxGeometry x="100" y="300" width="140" height="50" as="geometry" />
        </mxCell>
        <mxCell id="IE-UkbdnU8F0XDlXtWsS-5" style="edgeStyle=orthogonalEdgeStyle;rounded=0;orthogonalLoop=1;jettySize=auto;html=1;entryX=0.5;entryY=0;entryDx=0;entryDy=0;" parent="1" source="IE-UkbdnU8F0XDlXtWsS-4" target="IE-UkbdnU8F0XDlXtWsS-6" edge="1">
          <mxGeometry relative="1" as="geometry">
            <mxPoint x="170" y="170" as="targetPoint" />
          </mxGeometry>
        </mxCell>
        <mxCell id="IE-UkbdnU8F0XDlXtWsS-4" value="инициализация q" style="shape=parallelogram;perimeter=parallelogramPerimeter;whiteSpace=wrap;html=1;fixedSize=1;" parent="1" vertex="1">
          <mxGeometry x="100" y="110" width="140" height="40" as="geometry" />
        </mxCell>
        <mxCell id="IE-UkbdnU8F0XDlXtWsS-7" style="edgeStyle=orthogonalEdgeStyle;rounded=0;orthogonalLoop=1;jettySize=auto;html=1;entryX=0.5;entryY=0;entryDx=0;entryDy=0;" parent="1" source="IE-UkbdnU8F0XDlXtWsS-6" target="IE-UkbdnU8F0XDlXtWsS-8" edge="1">
          <mxGeometry relative="1" as="geometry">
            <mxPoint x="170" y="240" as="targetPoint" />
          </mxGeometry>
        </mxCell>
        <mxCell id="IE-UkbdnU8F0XDlXtWsS-6" value="IsFull := q.rear = MaxSize" style="rounded=0;whiteSpace=wrap;html=1;" parent="1" vertex="1">
          <mxGeometry x="100" y="170" width="140" height="50" as="geometry" />
        </mxCell>
        <mxCell id="IE-UkbdnU8F0XDlXtWsS-9" style="edgeStyle=orthogonalEdgeStyle;rounded=0;orthogonalLoop=1;jettySize=auto;html=1;entryX=0.5;entryY=0;entryDx=0;entryDy=0;" parent="1" source="IE-UkbdnU8F0XDlXtWsS-8" target="IE-UkbdnU8F0XDlXtWsS-2" edge="1">
          <mxGeometry relative="1" as="geometry" />
        </mxCell>
        <mxCell id="IE-UkbdnU8F0XDlXtWsS-8" value="возврат q" style="shape=parallelogram;perimeter=parallelogramPerimeter;whiteSpace=wrap;html=1;fixedSize=1;" parent="1" vertex="1">
          <mxGeometry x="100" y="240" width="140" height="40" as="geometry" />
        </mxCell>
      </root>
    </mxGraphModel>
  </diagram>
</mxfile>
